<svg width="41" height="41" viewBox="0 0 41 41" fill="none" xmlns="http://www.w3.org/2000/svg">
<g filter="url(#filter0_d)">
<path d="M9.8566 7.61731C9.55798 7.32889 9.15803 7.1693 8.74288 7.17291C8.32774 7.17652 7.93062 7.34304 7.63706 7.6366C7.34349 7.93016 7.17698 8.32728 7.17337 8.74243C7.16976 9.15757 7.32935 9.55753 7.61777 9.85615L16.7615 18.9999L7.61619 28.1436C7.46496 28.2897 7.34434 28.4644 7.26136 28.6576C7.17838 28.8508 7.1347 29.0585 7.13287 29.2688C7.13105 29.479 7.17111 29.6875 7.25072 29.8821C7.33033 30.0767 7.4479 30.2534 7.59656 30.4021C7.74522 30.5508 7.92201 30.6683 8.11659 30.7479C8.31118 30.8276 8.51967 30.8676 8.7299 30.8658C8.94014 30.864 9.1479 30.8203 9.34108 30.7373C9.53425 30.6543 9.70896 30.5337 9.85502 30.3825L19.0004 21.2387L28.1441 30.3825C28.4427 30.6709 28.8427 30.8305 29.2578 30.8269C29.673 30.8233 30.0701 30.6568 30.3636 30.3632C30.6572 30.0696 30.8237 29.6725 30.8273 29.2574C30.8309 28.8422 30.6713 28.4423 30.3829 28.1436L21.2392 18.9999L30.3829 9.85615C30.6713 9.55753 30.8309 9.15757 30.8273 8.74243C30.8237 8.32728 30.6572 7.93016 30.3636 7.6366C30.0701 7.34304 29.673 7.17652 29.2578 7.17291C28.8427 7.1693 28.4427 7.32889 28.1441 7.61731L19.0004 16.7611L9.8566 7.61573V7.61731Z" fill="white"/>
</g>
<defs>
<filter id="filter0_d" x="0" y="0" width="48" height="48" filterUnits="userSpaceOnUse" color-interpolation-filters="sRGB">
<feFlood flood-opacity="0" result="BackgroundImageFix"/>
<feColorMatrix in="SourceAlpha" type="matrix" values="0 0 0 0 0 0 0 0 0 0 0 0 0 0 0 0 0 0 127 0"/>
<feOffset dx="5" dy="5"/>
<feGaussianBlur stdDeviation="2.5"/>
<feColorMatrix type="matrix" values="0 0 0 0 0 0 0 0 0 0 0 0 0 0 0 0 0 0 0.25 0"/>
<feBlend mode="normal" in2="BackgroundImageFix" result="effect1_dropShadow"/>
<feBlend mode="normal" in="SourceGraphic" in2="effect1_dropShadow" result="shape"/>
</filter>
</defs>
</svg>
