<svg width="76" height="76" viewBox="0 0 76 76" fill="none" xmlns="http://www.w3.org/2000/svg">
<g clip-path="url(#clip0)">
<path fill-rule="evenodd" clip-rule="evenodd" d="M66.5088 9.5H9.50879C8.24901 9.5 7.04083 10.0004 6.15003 10.8912C5.25923 11.782 4.75879 12.9902 4.75879 14.25V61.75C4.75879 63.0098 5.25923 64.218 6.15003 65.1088C7.04083 65.9996 8.24901 66.5 9.50879 66.5H66.5088C67.7686 66.5 68.9767 65.9996 69.8675 65.1088C70.7583 64.218 71.2588 63.0098 71.2588 61.75V14.25C71.2588 12.9902 70.7583 11.782 69.8675 10.8912C68.9767 10.0004 67.7686 9.5 66.5088 9.5ZM9.50879 4.75C6.98923 4.75 4.57287 5.75089 2.79127 7.53249C1.00968 9.31408 0.00878906 11.7304 0.00878906 14.25V61.75C0.00878906 64.2696 1.00968 66.6859 2.79127 68.4675C4.57287 70.2491 6.98923 71.25 9.50879 71.25H66.5088C67.7563 71.25 68.9917 71.0043 70.1443 70.5269C71.2969 70.0494 72.3441 69.3497 73.2263 68.4675C74.1085 67.5854 74.8082 66.5381 75.2856 65.3855C75.7631 64.2329 76.0088 62.9976 76.0088 61.75V14.25C76.0088 11.7304 75.0079 9.31408 73.2263 7.53249C71.4447 5.75089 69.0283 4.75 66.5088 4.75H9.50879Z" fill="white"/>
<path d="M50.5773 36.3183C50.9301 35.9665 51.3845 35.7345 51.8764 35.6553C52.3683 35.576 52.8726 35.6534 53.318 35.8765L71.2588 45.1248V66.4998H4.75879V56.9998L17.3273 45.8183C17.7155 45.4315 18.2256 45.1908 18.771 45.1371C19.3164 45.0835 19.8636 45.2201 20.3198 45.5238L32.9548 53.9455L50.5773 36.323V36.3183Z" fill="white"/>
<path fill-rule="evenodd" clip-rule="evenodd" d="M21.3838 33.25C22.3195 33.25 23.246 33.0657 24.1104 32.7076C24.9749 32.3496 25.7603 31.8248 26.4219 31.1631C27.0835 30.5015 27.6084 29.7161 27.9664 28.8516C28.3245 27.9872 28.5088 27.0607 28.5088 26.125C28.5088 25.1893 28.3245 24.2628 27.9664 23.3984C27.6084 22.5339 27.0835 21.7485 26.4219 21.0869C25.7603 20.4252 24.9749 19.9004 24.1104 19.5424C23.246 19.1843 22.3195 19 21.3838 19C19.4941 19 17.6818 19.7507 16.3457 21.0869C15.0095 22.4231 14.2588 24.2353 14.2588 26.125C14.2588 28.0147 15.0095 29.8269 16.3457 31.1631C17.6818 32.4993 19.4941 33.25 21.3838 33.25Z" fill="white"/>
</g>
<defs>
<clipPath id="clip0">
<rect width="76" height="76" fill="white"/>
</clipPath>
</defs>
</svg>
