<svg width="78" height="64" viewBox="0 0 78 64" fill="none" xmlns="http://www.w3.org/2000/svg">
<path d="M76.5 0.524632H21V2.75V5.375V8C21 5.375 21 10.2254 21 10.2254H75.75C76.1625 10.2254 77.25 8.4125 77.25 8V2.75C77.25 2.3375 76.9125 0.524632 76.5 0.524632ZM76.5 27.1496H21C21 27.1496 21 28.9625 21 29.375V34.625C21 35.0375 21 36.8504 21 36.8504H75.75C76.1625 36.8504 77.25 35.0375 77.25 34.625V29.375C77.25 28.9625 76.9125 27.1496 76.5 27.1496ZM76.5 53.7746H21V56V58.5V60.6341V63L76.5 63.4754C76.9125 63.4754 77.25 61.6625 77.25 61.25V56C77.25 55.5875 76.9125 53.7746 76.5 53.7746ZM0.75 5.375C0.75 6.06444 0.885796 6.74713 1.14963 7.38409C1.41347 8.02105 1.80018 8.5998 2.28769 9.08731C2.7752 9.57482 3.35395 9.96153 3.99091 10.2254C4.62787 10.4892 5.31056 10.625 6 10.625C6.68944 10.625 7.37213 10.4892 8.00909 10.2254C8.64605 9.96153 9.2248 9.57482 9.71231 9.08731C10.1998 8.5998 10.5865 8.02105 10.8504 7.38409C11.1142 6.74713 11.25 6.06444 11.25 5.375C11.25 4.68556 11.1142 4.00287 10.8504 3.36591C10.5865 2.72895 10.1998 2.1502 9.71231 1.66269C9.2248 1.17518 8.64605 0.788469 8.00909 0.524632C7.37213 0.260795 6.68944 0.125 6 0.125C5.31056 0.125 4.62787 0.260795 3.99091 0.524632C3.35395 0.788469 2.7752 1.17518 2.28769 1.66269C1.80018 2.1502 1.41347 2.72895 1.14963 3.36591C0.885796 4.00287 0.75 4.68556 0.75 5.375ZM0.75 32C0.75 32.6894 0.885796 33.3721 1.14963 34.0091C1.41347 34.646 1.80018 35.2248 2.28769 35.7123C2.7752 36.1998 3.35395 36.5865 3.99091 36.8504C4.62787 37.1142 5.31056 37.25 6 37.25C6.68944 37.25 7.37213 37.1142 8.00909 36.8504C8.64605 36.5865 9.2248 36.1998 9.71231 35.7123C10.1998 35.2248 10.5865 34.646 10.8504 34.0091C11.1142 33.3721 11.25 32.6894 11.25 32C11.25 31.3106 11.1142 30.6279 10.8504 29.9909C10.5865 29.354 10.1998 28.7752 9.71231 28.2877C9.2248 27.8002 8.64605 27.4135 8.00909 27.1496C7.37213 26.8858 6.68944 26.75 6 26.75C5.31056 26.75 4.62787 26.8858 3.99091 27.1496C3.35395 27.4135 2.7752 27.8002 2.28769 28.2877C1.80018 28.7752 1.41347 29.354 1.14963 29.9909C0.885796 30.6279 0.75 31.3106 0.75 32ZM0.75 58.625C0.75 59.3144 0.885796 59.9971 1.14963 60.6341C1.41347 61.271 1.80018 61.8498 2.28769 62.3373C2.7752 62.8248 3.35395 63.2115 3.99091 63.4754C4.62787 63.7392 5.31056 63.875 6 63.875C6.68944 63.875 7.37213 63.7392 8.00909 63.4754C8.64605 63.2115 9.2248 62.8248 9.71231 62.3373C10.1998 61.8498 10.5865 61.271 10.8504 60.6341C11.1142 59.9971 11.25 59.3144 11.25 58.625C11.25 57.9356 11.1142 57.2529 10.8504 56.6159C10.5865 55.979 10.1998 55.4002 9.71231 54.9127C9.2248 54.4252 8.64605 54.0385 8.00909 53.7746C7.37213 53.5108 6.68944 53.375 6 53.375C5.31056 53.375 4.62787 53.5108 3.99091 53.7746C3.35395 54.0385 2.7752 54.4252 2.28769 54.9127C1.80018 55.4002 1.41347 55.979 1.14963 56.6159C0.885796 57.2529 0.75 57.9356 0.75 58.625Z" fill="white"/>
</svg>
