<svg width="52" height="52" viewBox="0 0 52 52" fill="none" xmlns="http://www.w3.org/2000/svg">
<path d="M38.9997 28.1624H28.1663V38.9958C28.1663 39.5704 27.9381 40.1215 27.5317 40.5278C27.1254 40.9342 26.5743 41.1624 25.9997 41.1624C25.425 41.1624 24.8739 40.9342 24.4676 40.5278C24.0613 40.1215 23.833 39.5704 23.833 38.9958V28.1624H12.9997C12.425 28.1624 11.8739 27.9342 11.4676 27.5278C11.0613 27.1215 10.833 26.5704 10.833 25.9958C10.833 25.4211 11.0613 24.87 11.4676 24.4637C11.8739 24.0574 12.425 23.8291 12.9997 23.8291H23.833V12.9958C23.833 12.4211 24.0613 11.87 24.4676 11.4637C24.8739 11.0574 25.425 10.8291 25.9997 10.8291C26.5743 10.8291 27.1254 11.0574 27.5317 11.4637C27.9381 11.87 28.1663 12.4211 28.1663 12.9958V23.8291H38.9997C39.5743 23.8291 40.1254 24.0574 40.5317 24.4637C40.9381 24.87 41.1663 25.4211 41.1663 25.9958C41.1663 26.5704 40.9381 27.1215 40.5317 27.5278C40.1254 27.9342 39.5743 28.1624 38.9997 28.1624Z" fill="black"/>
</svg>
