<svg width="72" height="72" viewBox="0 0 72 72" fill="none" xmlns="http://www.w3.org/2000/svg">
<path d="M45.927 26.0692C54.3289 34.4799 54.2136 47.9642 45.9776 56.2459C45.9621 56.2628 45.9438 56.2811 45.927 56.298L36.477 65.748C28.1421 74.0828 14.5818 74.0817 6.2482 65.748C-2.08664 57.4145 -2.08664 43.8527 6.2482 35.5192L11.4662 30.3012C12.85 28.9174 15.233 29.8371 15.3045 31.7927C15.3956 34.2848 15.8425 36.7886 16.6671 39.2065C16.9464 40.0253 16.7468 40.9309 16.1351 41.5426L14.2948 43.383C10.3536 47.3241 10.23 53.7414 14.1323 57.7211C18.0732 61.74 24.5507 61.7639 28.5218 57.7928L37.9718 48.3442C41.9362 44.3799 41.9196 37.9721 37.9718 34.0244C37.4513 33.5049 36.9271 33.1013 36.5176 32.8194C36.2279 32.6204 35.9887 32.3565 35.8191 32.0488C35.6495 31.741 35.5541 31.3978 35.5407 31.0466C35.485 29.5607 36.0115 28.0294 37.1857 26.8552L40.1464 23.8943C40.9228 23.1179 42.1408 23.0226 43.041 23.6509C44.0721 24.3708 45.0378 25.18 45.927 26.0692ZM65.7459 6.24925C57.4124 -2.08447 43.852 -2.0856 35.5172 6.24925L26.0672 15.6992C26.0503 15.7161 26.032 15.7344 26.0166 15.7513C17.7807 24.033 17.6653 37.5174 26.0672 45.928C26.9563 46.8171 27.922 47.6263 28.953 48.3462C29.8532 48.9745 31.0713 48.879 31.8476 48.1028L34.8083 45.1419C35.9825 43.9677 36.509 42.4364 36.4533 40.9504C36.4399 40.5993 36.3445 40.2561 36.1749 39.9483C36.0053 39.6405 35.7661 39.3767 35.4764 39.1777C35.0669 38.8958 34.5427 38.4922 34.0222 37.9727C30.0744 34.0249 30.0578 27.6172 34.0222 23.6529L43.4722 14.2043C47.4433 10.2332 53.9206 10.2571 57.8617 14.276C61.764 18.2557 61.6405 24.673 57.6992 28.6141L55.8589 30.4545C55.2472 31.0662 55.0476 31.9718 55.3269 32.7905C56.1515 35.2084 56.5984 37.7123 56.6895 40.2044C56.7611 42.16 59.144 43.0796 60.5278 41.6959L65.7458 36.4779C74.0808 28.1446 74.0808 14.5827 65.7459 6.24925Z" fill="white"/>
</svg>
